<?xml version="1.0" standalone="no"?><!DOCTYPE svg PUBLIC "-//W3C//DTD SVG 1.1//EN" "http://www.w3.org/Graphics/SVG/1.1/DTD/svg11.dtd"><svg t="1657363077954" class="icon" viewBox="0 0 1024 1024" version="1.1" xmlns="http://www.w3.org/2000/svg" p-id="1354" xmlns:xlink="http://www.w3.org/1999/xlink" width="200" height="200"><defs><style type="text/css"></style></defs><path d="M512 131.2l-345.6 188.8 345.6 169.6 345.6-169.6-345.6-188.8z m16-64l416 224c22.4 12.8 22.4 44.8 0 57.6l-416 208c-9.6 3.2-19.2 3.2-28.8 0l-416-208c-22.4-12.8-22.4-44.8 0-57.6l416-224c6.4-3.2 19.2-3.2 28.8 0z m-419.2 416l403.2 198.4 403.2-198.4c16-6.4 35.2 0 41.6 16 6.4 16 0 35.2-16 41.6l-428.8 214.4-428.8-214.4c-16-6.4-22.4-25.6-16-41.6 9.6-16 28.8-22.4 41.6-16z m0 192l403.2 198.4 403.2-198.4c16-6.4 35.2 0 41.6 16 6.4 16 0 35.2-16 41.6l-428.8 214.4-428.8-214.4c-16-6.4-22.4-25.6-16-41.6 9.6-16 28.8-22.4 41.6-16z" p-id="1355" fill="#ffffff"></path></svg>
